<svg width="158" height="54" viewBox="0 0 158 54" fill="none" xmlns="http://www.w3.org/2000/svg">
<path d="M0 0H53.04V53.04H0V0Z" fill="#0F1722"/>
<path d="M51.1753 2.2398C49.6269 3.1131 48.1125 4.06109 46.6514 5.26754L47.4095 9.26077C48.8883 9.70259 50.0962 9.86834 51.1753 9.8787V2.2397V2.2398ZM40.9214 4.77909C39.3382 4.77029 37.5567 5.04802 35.3447 5.48705L35.3219 5.49151L35.2992 5.49493C33.7691 5.72045 31.0732 6.74479 28.4138 9.52131L32.9999 10.7402C33.1006 10.5855 33.6148 9.80743 33.7126 9.64676C34.2434 9.97028 34.7742 10.2936 35.3051 10.6169C34.0127 12.738 32.5348 14.3003 30.7538 16.2651C30.5338 16.7538 30.855 17.1144 31.2054 17.3155C31.7462 17.6191 32.6661 17.6356 32.9082 17.5332C35.3874 15.8998 37.1368 13.8113 38.7056 11.7039L39.2722 11.8038C40.4636 12.0142 42.0143 11.9134 43.282 11.5082C44.4317 11.1407 45.2784 10.5389 45.6296 9.88305L44.8084 5.55781C43.5608 5.01767 42.3181 4.78686 40.9213 4.77909H40.9214ZM23.6123 10.2265L20.5629 22.2419L21.5619 22.2727H32.2456L32.3389 22.251L33.0437 19.4444C32.1259 19.6413 31.1484 19.422 30.2926 18.9415C29.7551 18.6397 29.2541 18.1915 28.9851 17.5498C28.1774 15.4844 30.6278 13.6861 31.9607 12.0853L23.6121 10.2265H23.6123ZM7.20619 20.8223L4.82353 25.5877H48.2164L45.8337 20.8223H34.6205L34.2562 22.2727H36.465V24.1373H16.575V22.2727H18.6315L18.9995 20.8223H7.20629H7.20619ZM4.24734 27.4523V50.4502H48.7927V27.4523H4.24734ZM5.69766 28.9027H47.3423V48.9998H5.69766V28.9027ZM7.56234 30.7673V43.0161L11.1365 35.2472L18.7362 38.5375L25.6409 33.7888L29.527 39.7219L34.7181 39.2459L37.9606 35.1713L45.4777 40.8809V30.7673H7.56234ZM25.1259 36.406L15.7372 42.863L18.5353 47.1352H28.4395L30.4768 44.5754L25.1259 36.406ZM12.0685 37.6829L7.71991 47.1352H16.3063L13.1785 42.3597L16.9228 39.7847L12.0685 37.6827V37.6829ZM38.2844 37.7587L30.8226 47.1352H45.3816L45.4777 47.0144V43.2226L38.2843 37.7587H38.2844ZM33.1105 41.2657L30.6837 41.4883L31.6995 43.039L33.1105 41.2657Z" fill="white"/>
<path d="M78.12 30.2C78.2267 30.1467 78.3067 30.0267 78.36 29.84C78.4133 29.6267 78.4533 29.4 78.48 29.16C78.5333 28.92 78.5733 28.68 78.6 28.44C78.6533 28.1733 78.7333 27.96 78.84 27.8C79.16 27.32 79.4267 26.92 79.64 26.6C79.88 26.2533 80.08 25.9733 80.24 25.76C80.4267 25.52 80.5733 25.3333 80.68 25.2C80.7867 25.04 80.8667 24.88 80.92 24.72C81.2667 24.4533 81.4533 24.2133 81.48 24C81.5333 23.7867 81.6533 23.4933 81.84 23.12C81.9733 22.8533 82.12 22.5067 82.28 22.08C82.44 21.6267 82.5333 21.36 82.56 21.28C82.64 21.04 82.7733 20.7733 82.96 20.48C83.1733 20.16 83.3733 19.8267 83.56 19.48C83.7733 19.1067 83.96 18.72 84.12 18.32C84.28 17.8933 84.36 17.4533 84.36 17C84.3867 16.4133 84.4 15.9067 84.4 15.48C84.4267 15.0267 84.4667 14.64 84.52 14.32L85.76 14.04L87.16 14.68C87.16 15.1067 87.2933 15.48 87.56 15.8C87.8533 16.0933 88.0133 16.36 88.04 16.6C88.04 16.8133 87.88 17.1867 87.56 17.72C87.24 18.2267 87 18.8533 86.84 19.6C86.8133 19.8133 86.6533 20.0933 86.36 20.44C86.0667 20.76 85.9067 21.1467 85.88 21.6C85.88 22.0533 85.7867 22.52 85.6 23C85.4133 23.4533 85.28 23.7733 85.2 23.96C84.96 24.5467 84.6 25.3333 84.12 26.32C83.6667 27.3067 83.0933 28.52 82.4 29.96C81.7067 31.4 81.1333 32.52 80.68 33.32C80.2267 34.12 79.96 34.6133 79.88 34.8L79.56 35.52L79.24 36.16L77.68 37.24L75.08 37.28L74.28 37.68L72.84 36.04C72.68 35.64 72.44 35.2 72.12 34.72C71.8267 34.24 71.5467 33.68 71.28 33.04L70.36 30.68C70.6 30.12 70.72 29.68 70.72 29.36C70.7467 29.04 70.6933 28.8 70.56 28.64C70.4267 28.48 70.24 28.3867 70 28.36C69.76 28.3067 69.5067 28.2667 69.24 28.24C69.08 28.2133 68.9067 28.0533 68.72 27.76C68.5333 27.44 68.3467 27.2267 68.16 27.12L68.08 26.2L67.04 24.52L66.72 21.08C66.7733 20.8933 66.7467 20.7467 66.64 20.64C66.56 20.5333 66.44 20.4533 66.28 20.4L65.8 20.2C65.6133 20.12 65.5067 20.0267 65.48 19.92C65.2667 19.4933 65.0933 19.1067 64.96 18.76C64.8533 18.3867 64.76 18.0533 64.68 17.76C64.6 17.4667 64.5067 17.2 64.4 16.96C64.32 16.72 64.2 16.52 64.04 16.36L64.08 14.72C64.4 14.5333 64.8267 14.4133 65.36 14.36C65.9733 14.3067 66.44 14.0933 66.76 13.72L68.08 13.32C68.4 13.5867 68.72 13.8267 69.04 14.04C69.36 14.2533 69.6 14.4533 69.76 14.64C70.1867 15.1467 70.7467 15.56 71.44 15.88C71.4667 16.0133 71.5467 16.32 71.68 16.8C71.84 17.28 72.0133 17.8533 72.2 18.52C72.4133 19.1867 72.6533 19.92 72.92 20.72C73.1867 21.4933 73.44 22.2533 73.68 23C73.9467 23.7467 74.2 24.44 74.44 25.08C74.7067 25.6933 74.9333 26.1867 75.12 26.56C75.2 26.72 75.2933 26.9733 75.4 27.32C75.5067 27.6667 75.6133 28.0267 75.72 28.4C75.8267 28.7467 75.92 29.08 76 29.4C76.1067 29.72 76.1867 29.9333 76.24 30.04C76.4267 30.04 76.5867 30.0667 76.72 30.12C76.8533 30.1733 76.9867 30.2267 77.12 30.28C77.2533 30.3333 77.4 30.36 77.56 30.36C77.72 30.36 77.9067 30.3067 78.12 30.2ZM112.764 19.48C112.871 20.0667 112.911 20.6533 112.884 21.24C112.884 21.8 112.871 22.3467 112.844 22.88C112.844 23.4133 112.858 23.9333 112.884 24.44C112.938 24.92 113.071 25.3733 113.284 25.8C113.204 25.9333 113.044 26.2 112.804 26.6C112.591 27 112.431 27.4133 112.324 27.84C112.218 28.24 112.231 28.5467 112.364 28.76C112.498 28.9733 112.551 29.1067 112.524 29.16C112.498 29.24 112.471 29.3333 112.444 29.44C112.418 29.52 112.378 29.6267 112.324 29.76C112.244 29.9733 112.111 30.24 111.924 30.56C111.764 30.88 111.538 31.2533 111.244 31.68C110.951 32.1067 110.751 32.48 110.644 32.8C110.564 33.0933 110.511 33.36 110.484 33.6C110.484 33.84 110.484 34.0533 110.484 34.24C110.484 34.4267 110.431 34.6 110.324 34.76C110.271 34.8133 110.151 34.8533 109.964 34.88C109.778 34.88 109.551 34.9067 109.284 34.96C109.018 35.0133 108.724 35.1067 108.404 35.24C108.111 35.3467 107.831 35.52 107.564 35.76C107.058 35.8667 106.658 36.0133 106.364 36.2C106.098 36.36 105.684 36.4667 105.124 36.52C104.511 36.6533 104.098 36.8267 103.884 37.04C103.671 37.2267 103.524 37.32 103.444 37.32C102.671 37.32 102.071 37.3467 101.644 37.4C101.218 37.4267 100.938 37.4667 100.804 37.52L100.404 37.6C100.324 37.6267 100.151 37.64 99.8844 37.64L94.2844 35.92L91.4444 32.72C91.4444 31.8933 91.431 31.2 91.4044 30.64C91.4044 30.0533 91.391 29.5467 91.3644 29.12C91.3644 28.6667 91.3644 28.24 91.3644 27.84C91.3644 27.44 91.3777 27 91.4044 26.52C91.511 26.44 91.6844 26.2 91.9244 25.8C92.191 25.3733 92.4577 24.9067 92.7244 24.4C92.991 23.8667 93.2444 23.32 93.4844 22.76C93.7244 22.2 93.911 21.7333 94.0444 21.36C94.151 20.96 94.2444 20.6533 94.3244 20.44C94.4044 20.2 94.471 20 94.5244 19.84C94.6044 19.68 94.671 19.52 94.7244 19.36C94.7777 19.2 94.831 19 94.8844 18.76L95.9244 17.72C95.9244 17.6933 96.071 17.5067 96.3644 17.16C96.6844 16.7867 97.0444 16.3867 97.4444 15.96C97.871 15.5067 98.311 15.0933 98.7644 14.72C99.2177 14.3467 99.591 14.1467 99.8844 14.12L101.844 13.92L102.644 14C102.751 14.0267 102.844 14.04 102.924 14.04C103.031 14.04 103.124 14.04 103.204 14.04H103.484L104.844 15.28C104.871 15.5733 104.938 15.8133 105.044 16C105.178 16.1867 105.444 16.3333 105.844 16.44C106.271 16.5467 106.498 16.6 106.524 16.6C106.551 16.6267 106.551 16.6533 106.524 16.68C107.031 16.68 107.564 16.5467 108.124 16.28C108.684 15.9867 109.231 15.84 109.764 15.84C109.898 15.84 110.044 15.9067 110.204 16.04C110.364 16.1733 110.524 16.3333 110.684 16.52L111.164 17.04C111.324 17.2267 111.471 17.3333 111.604 17.36C111.551 17.8667 111.564 18.24 111.644 18.48C111.751 18.6933 111.871 18.8533 112.004 18.96C112.164 19.04 112.311 19.1067 112.444 19.16C112.604 19.2133 112.711 19.32 112.764 19.48ZM106.044 31.64C106.204 31.5333 106.338 31.4667 106.444 31.44C106.551 31.3867 106.644 31.3067 106.724 31.2C106.831 31.0933 106.924 30.92 107.004 30.68C107.111 30.4133 107.231 30.0133 107.364 29.48C107.524 28.9467 107.658 28.5067 107.764 28.16C107.871 27.7867 107.951 27.48 108.004 27.24C108.058 26.9733 108.098 26.7333 108.124 26.52C108.151 26.3067 108.164 26.08 108.164 25.84C108.164 25.3867 108.191 24.88 108.244 24.32C108.298 23.7333 108.244 23.12 108.084 22.48C107.951 22.0267 107.858 21.52 107.804 20.96C107.778 20.4 107.738 19.92 107.684 19.52C107.418 19.36 107.258 19.1067 107.204 18.76C107.151 18.4133 106.978 18.08 106.684 17.76C106.524 17.6267 106.351 17.5467 106.164 17.52C106.004 17.4933 105.844 17.4933 105.684 17.52C105.551 17.5467 105.418 17.5867 105.284 17.64C105.178 17.6933 105.098 17.72 105.044 17.72C104.964 17.72 104.804 17.7067 104.564 17.68C104.324 17.6267 104.044 17.6133 103.724 17.64C103.431 17.64 103.124 17.6933 102.804 17.8C102.511 17.88 102.271 18.0533 102.084 18.32C101.258 19.2533 100.778 19.84 100.644 20.08C100.271 20.7733 99.9377 21.44 99.6444 22.08C99.3777 22.72 99.1377 23.2 98.9244 23.52C98.8177 23.7867 98.591 24.1867 98.2444 24.72C97.9244 25.2533 97.7644 26.0133 97.7644 27C97.791 27.08 97.751 27.28 97.6444 27.6C97.5377 27.8933 97.431 28.2533 97.3244 28.68C97.2444 29.1067 97.1777 29.5467 97.1244 30C97.071 30.4267 97.111 30.8133 97.2444 31.16C97.351 31.4267 97.5777 31.8533 97.9244 32.44C98.271 33 98.871 33.6 99.7244 34.24C100.258 34.5867 100.618 34.9467 100.804 35.32C100.991 35.6667 101.151 35.84 101.284 35.84C101.418 35.84 101.631 35.84 101.924 35.84C102.218 35.8133 102.431 35.8667 102.564 36L106.044 31.64ZM135.146 17.04C134.879 17.04 134.572 17.04 134.226 17.04C133.879 17.0133 133.479 16.9867 133.026 16.96C132.252 16.9333 131.546 16.92 130.906 16.92C130.266 16.8933 129.839 16.8533 129.626 16.8V19.84C129.252 20.1333 128.986 20.72 128.826 21.6C128.612 24.24 128.479 26.36 128.426 27.96C128.372 29.5333 128.359 30.76 128.386 31.64C128.412 32.1733 128.439 32.6267 128.466 33C128.492 33.3467 128.532 33.6267 128.586 33.84L129.026 35.96L128.826 36.28L123.986 37.36H123.866C123.812 37.36 123.746 37.3733 123.666 37.4C123.612 37.4 123.559 37.4 123.506 37.4L122.186 36.48C122.186 36.4533 122.199 36.44 122.226 36.44C122.252 36.4133 122.279 36.3733 122.306 36.32C122.332 36.24 122.359 36.12 122.386 35.96C122.412 35.7733 122.426 35.52 122.426 35.2C122.426 34.9333 122.426 34.7467 122.426 34.64C122.452 34.5333 122.439 34.36 122.386 34.12C122.332 33.8 122.332 33.08 122.386 31.96C122.412 30.84 122.226 30.28 121.826 30.28C121.879 29.9867 121.906 29.64 121.906 29.24C121.932 28.84 121.959 28.4667 121.986 28.12C122.012 27.9067 122.026 27.7067 122.026 27.52C122.026 27.3067 122.026 27.0933 122.026 26.88C122.052 26.8533 122.066 26.8267 122.066 26.8C122.092 26.7733 122.119 26.7467 122.146 26.72L122.186 26.68C122.319 26.4667 122.386 26.3067 122.386 26.2C122.386 26.0667 122.439 25.7733 122.546 25.32V23.6C123.052 23.68 123.159 23.2533 122.866 22.32C122.626 21.3067 122.586 20.8 122.746 20.8C122.826 20.4533 122.906 20.0533 122.986 19.6C123.039 19.2267 123.092 18.8267 123.146 18.4C123.199 17.9467 123.252 17.4933 123.306 17.04L123.146 16.92C122.959 17.08 122.732 17.1333 122.466 17.08C122.226 17.0267 121.999 16.9867 121.786 16.96C121.172 17.04 120.652 17.1067 120.226 17.16C119.799 17.2133 119.452 17.3067 119.186 17.44C119.026 17.4933 118.879 17.5333 118.746 17.56C118.612 17.5867 118.546 17.7733 118.546 18.12L116.266 18.6L115.546 18.08C115.439 17.8133 115.346 17.56 115.266 17.32C115.186 17.0533 115.132 16.7333 115.106 16.36L115.586 15.2C115.959 15.1467 116.252 15.12 116.466 15.12C116.706 15.12 116.879 15.1333 116.986 15.16C117.119 15.16 117.212 15.1733 117.266 15.2C117.319 15.2267 117.372 15.24 117.426 15.24C117.719 15.1067 118.026 14.9867 118.346 14.88C118.666 14.7467 119.039 14.6267 119.466 14.52C119.919 14.4133 120.439 14.32 121.026 14.24C121.639 14.1333 122.372 14.0267 123.226 13.92L126.866 13.76L127.266 14.08C127.399 14.16 127.546 14.24 127.706 14.32C127.866 14.3733 128.026 14.4 128.186 14.4C128.372 14.4267 128.546 14.36 128.706 14.2C128.759 14.1467 128.812 14.0667 128.866 13.96C129.079 13.9067 129.426 13.9067 129.906 13.96C130.412 13.9867 131.172 14.08 132.186 14.24C133.946 14.5333 135.106 14.6933 135.666 14.72L135.906 15.12V16.44L135.146 17.04ZM157.444 23.88C157.444 23.96 157.417 24.0933 157.364 24.28C157.337 24.44 157.297 24.6133 157.244 24.8C157.191 24.9867 157.137 25.16 157.084 25.32C157.057 25.48 157.044 25.6 157.044 25.68C156.111 25.76 155.497 25.84 155.204 25.92C154.937 25.9733 154.777 26 154.724 26H152.044C151.644 26 151.337 26 151.124 26C150.911 25.9733 150.737 25.96 150.604 25.96C150.497 25.96 150.417 25.9733 150.364 26C150.311 26 150.231 26.0133 150.124 26.04L149.284 26.56L148.044 26C148.017 25.8667 147.884 25.72 147.644 25.56C147.431 25.4 147.284 25.2133 147.204 25L148.484 23.24C149.017 23.24 149.297 23.2533 149.324 23.28C149.377 23.28 149.391 23.2667 149.364 23.24C149.364 23.2133 149.444 23.1867 149.604 23.16C149.764 23.1067 149.951 23.0667 150.164 23.04L150.764 22.92C150.951 22.8933 151.817 22.9333 153.364 23.04C153.391 23.04 153.577 23.1067 153.924 23.24C154.057 23.2933 154.391 23.28 154.924 23.2C155.484 23.0933 156.111 23.04 156.804 23.04L157.444 23.88ZM157.604 34.76C157.551 34.92 157.511 35.1067 157.484 35.32C157.484 35.5333 157.511 35.68 157.564 35.76C157.511 35.8133 157.351 35.88 157.084 35.96C156.817 36.04 156.444 36.1733 155.964 36.36C155.457 36.4933 154.977 36.52 154.524 36.44C154.071 36.36 153.631 36.3733 153.204 36.48C151.897 36.48 150.551 36.68 149.164 37.08C148.791 37.1867 148.471 37.28 148.204 37.36C147.937 37.44 147.711 37.5067 147.524 37.56C147.417 37.6133 147.311 37.6533 147.204 37.68C147.124 37.68 147.044 37.6933 146.964 37.72L143.844 37.84C143.604 37.92 143.351 37.9467 143.084 37.92C142.817 37.8667 142.551 37.8133 142.284 37.76C142.017 37.68 141.777 37.6 141.564 37.52C141.351 37.44 141.177 37.4 141.044 37.4C140.911 37.4 140.684 37.4133 140.364 37.44C140.044 37.44 139.751 37.44 139.484 37.44C139.217 37.2533 138.977 37.0667 138.764 36.88C138.551 36.6667 138.537 36.3067 138.724 35.8C138.777 35.5333 138.871 35.2667 139.004 35C139.164 34.7067 139.217 34.4133 139.164 34.12C139.137 34.0133 139.071 33.84 138.964 33.6C138.884 33.36 138.817 33.1067 138.764 32.84C138.737 32.5733 138.737 32.3067 138.764 32.04C138.817 31.7733 138.964 31.5467 139.204 31.36C139.417 31.0133 139.511 30.6933 139.484 30.4C139.457 30.08 139.337 29.7467 139.124 29.4C139.284 29.2133 139.377 29 139.404 28.76C139.457 28.4933 139.471 28.24 139.444 28C139.417 27.76 139.364 27.5467 139.284 27.36C139.231 27.1733 139.177 27.04 139.124 26.96C139.204 26.5867 139.284 26.0933 139.364 25.48C139.444 24.84 139.511 24.2 139.564 23.56C139.644 22.8933 139.697 22.28 139.724 21.72C139.751 21.16 139.751 20.7467 139.724 20.48C139.697 20.1333 139.724 19.7733 139.804 19.4C139.884 19.0267 139.977 18.6533 140.084 18.28C140.191 17.88 140.271 17.4933 140.324 17.12C140.377 16.7467 140.364 16.4 140.284 16.08L140.364 15.84C140.417 15.7867 140.324 15.3733 140.084 14.6L140.724 13.2H140.764C141.297 13.1733 141.844 13.1467 142.404 13.12C142.964 13.0933 143.471 13.0667 143.924 13.04C144.404 13.0133 144.791 13 145.084 13C145.404 12.9733 145.577 12.96 145.604 12.96H151.124C151.311 12.96 151.551 13.0533 151.844 13.24C152.164 13.4 153.231 13.48 155.044 13.48C155.071 13.5867 155.097 13.6933 155.124 13.8C155.151 13.9067 155.177 14.0133 155.204 14.12C155.284 14.6 155.377 14.9733 155.484 15.24L155.244 15.64C154.844 15.6667 154.537 15.68 154.324 15.68C154.111 15.68 153.951 15.68 153.844 15.68C153.764 15.6533 153.711 15.64 153.684 15.64C153.657 15.6133 153.631 15.6 153.604 15.6L150.484 15.2C149.711 15.04 148.751 15.1333 147.604 15.48C147.097 15.6133 146.684 15.6533 146.364 15.6C146.044 15.52 145.831 15.5067 145.724 15.56C145.404 15.4533 145.137 15.4533 144.924 15.56C144.711 15.6667 144.644 15.8667 144.724 16.16C144.804 16.4267 144.897 16.5867 145.004 16.64C145.111 16.6933 145.191 16.8 145.244 16.96C145.191 17.04 145.204 17.16 145.284 17.32C145.391 17.4533 145.511 17.5867 145.644 17.72C145.804 17.88 145.964 17.9867 146.124 18.04C146.284 18.0667 146.364 18.0933 146.364 18.12C146.364 18.1733 146.297 18.4533 146.164 18.96C146.031 19.44 145.924 20.0267 145.844 20.72C145.764 21.4133 145.737 22.16 145.764 22.96C145.817 23.76 146.017 24.5067 146.364 25.2C146.231 25.4933 146.111 26.0533 146.004 26.88C145.897 27.68 145.804 28.5067 145.724 29.36C145.671 30.2133 145.631 30.9867 145.604 31.68C145.577 32.3467 145.564 32.7067 145.564 32.76C145.537 32.76 145.497 32.8133 145.444 32.92C145.417 33 145.377 33.0933 145.324 33.2C145.271 33.3067 145.204 33.4 145.124 33.48C145.044 33.5333 144.951 33.5333 144.844 33.48V33.84C144.844 33.84 144.924 33.84 145.084 33.84H145.244C145.217 33.9733 145.204 34.16 145.204 34.4C145.204 34.64 145.191 34.84 145.164 35L148.204 34.6C148.737 34.6533 149.351 34.6667 150.044 34.64C150.764 34.6133 151.564 34.52 152.444 34.36C153.324 34.2267 154.044 34.1867 154.604 34.24C155.164 34.2933 155.577 34.2 155.844 33.96L156.844 33.92L157.604 34.76Z" fill="#17C3B2"/>
</svg>

